# xmcd
# Copyright (C) 1995-1998 Ti Kan
#
# Track frame offsets:
#       150
#       16000
#       29960
#       51410
#       66660
#       84032
#       98530
#       114087
#       130925
#       146700
#
# Disc length: 2779 seconds
#
# Revision: 0
# Processed by: cddbd v1.5.2PL0 Copyright (c) Steve Scherf et al.
# Submitted via: CD-Import v1.0
#
DISCID=830ad90a
DTITLE=Chair Chant Corps - Nous Rirons
DYEAR=06
DGENRE=
TTITLE0=Nous Rirons
TTITLE1=Nouveau Siècle
TTITLE2=Méthadone
TTITLE3=Crève Moi
TTITLE4=Le Ciel
TTITLE5=San Francisco
TTITLE6=Un Nouvel Horizon
TTITLE7=La Routine
TTITLE8=Que Sera Demain?
TTITLE9=Le Sud
EXTD=
EXTT0=
EXTT1=
EXTT2=
EXTT3=
EXTT4=
EXTT5=
EXTT6=
EXTT7=
EXTT8=
EXTT9=
PLAYORDER=
